<?xml version="1.0" encoding="utf-8"?>
<svg version="1.1" id="Capa_1" xmlns="http://www.w3.org/2000/svg" xmlns:xlink="http://www.w3.org/1999/xlink" x="0px" y="0px"
	fill="#ffa200"
	 viewBox="0 0 512 512" style="enable-background:new 0 0 512 512;" xml:space="preserve">
<g>
	<g>
		<path class="st0" d="M180.4,289.6c7.5-7.5,11.6-18.9,11.6-32.1c0-4.7-0.5-9.5-1.6-14.4c-6.2-28.7-28.2-51.1-50.2-51.1
			c-10.1,0-19.1,4.6-25.2,13c-5.4,7.4-8.3,17.1-8.3,28.2c0,4.7,0.5,9.5,1.6,14.4v0c6.2,28.7,28.2,51.1,50.2,51.1
			C166.9,298.7,174.4,295.5,180.4,289.6z"/>
		<path class="st0" d="M371.8,192c-22,0-44.1,22.4-50.2,51.1c-1.1,4.9-1.6,9.8-1.6,14.4c0,13.2,4.1,24.6,11.6,32.1
			c5.9,5.9,13.5,9.1,21.9,9.1c22,0,44.1-22.4,50.2-51.1v0c1.1-4.9,1.6-9.8,1.6-14.4c0-11-2.9-20.8-8.3-28.2
			C390.9,196.6,381.9,192,371.8,192z"/>
		<path class="st0" d="M350.8,162L350.8,162c0.7-3.9,1.1-7.6,1.2-11.2c0.4-14.1-3.8-26.3-11.8-34.5c-6.2-6.3-14-9.6-22.8-9.6
			c-22.3,0-44.1,22.6-49.5,51.4c-0.7,3.9-1.1,7.6-1.2,11.2c-0.4,14.1,3.8,26.3,11.8,34.5c6.2,6.3,14,9.6,22.8,9.6
			C323.5,213.3,345.3,190.8,350.8,162z"/>
		<path class="st0" d="M256,0C114.8,0,0,114.8,0,256s114.8,256,256,256s256-114.8,256-256S397.2,0,256,0z M256,469.3
			c-117.6,0-213.3-95.7-213.3-213.3c0-51.2,18.1-98.1,48.2-134.9L219,249.2c-9.8,10-14.7,23-18.2,32.6c-1.5,4.2-3.4,9.5-4.7,11
			c-4.4,5.3-9.7,10.1-15.4,15.3c-14.5,13.2-31,28.1-31.4,52.5c-0.2,12.9,3.8,23.9,11.5,31.7c8.4,8.5,20.9,13.1,36.1,13.1
			c17.1,0,27.8-5.7,36.5-10.2c7.4-3.9,13.2-7,22.6-7c9.4,0,15.2,3.1,22.6,7c8.6,4.6,19.4,10.2,36.5,10.2c15.2,0,27.6-4.5,36.1-13.1
			c1.8-1.9,3.4-3.9,4.8-6.1l34.9,34.9C354.1,451.2,307.2,469.3,256,469.3z M421.1,390.9L310.7,280.5c-5.8-16-15.6-40.3-44.9-44.9
			l-32.1-32.1c7.9-8.2,12-20.3,11.6-34.3c-0.1-3.6-0.5-7.4-1.2-11.2c-5.5-28.8-27.2-51.3-49.5-51.3c-8.7,0-16.6,3.3-22.8,9.6
			c-4.2,4.3-7.3,9.8-9.3,16.1l-41.5-41.5c36.8-30.1,83.8-48.2,134.9-48.2c117.6,0,213.3,95.7,213.3,213.3
			C469.3,307.2,451.2,354.1,421.1,390.9z"/>
	</g>
</g>
<line class="st1" x1="127" y1="91" x2="421.2" y2="385.2"/>
<line class="st1" x1="90.5" y1="127.5" x2="384.7" y2="421.7"/>
</svg>
