<?xml version="1.0" encoding="iso-8859-1"?>
<!DOCTYPE svg PUBLIC "-//W3C//DTD SVG 1.1//EN" "http://www.w3.org/Graphics/SVG/1.1/DTD/svg11.dtd">
<svg version="1.1" id="Capa_1" xmlns="http://www.w3.org/2000/svg" xmlns:xlink="http://www.w3.org/1999/xlink" x="0px" y="0px"
	 fill="#ffa200"
	 width="893px" height="893px" viewBox="0 0 893 893" style="enable-background:new 0 0 893 893;" xml:space="preserve">
<g>
	<g>
		<path d="M609.5,395.049v87.301l49.801,49.799h24.1c16.6,0,30-13.4,30-30v-77c0-16.601-13.4-30-30-30h-73.9V395.049z"/>
		<path d="M267.7,395.049H197c-16.6,0-30,13.4-30,30v77c0,16.6,13.4,30,30,30h115.1h92.6l-92.6-92.6L267.7,395.049z"/>
		<polygon points="589.5,462.249 589.5,395.049 522.301,395.049 		"/>
		<path d="M664.9,365.85c-2.9-22-16.201-65.4-75.801-76.4c-58.5-10.8-74.699-50.5-79.1-71.7c-1-4.5-7-5.5-9.301-1.4
			c-12,21.5-30.299,67.6,7.602,100.7c47.299,41.4,109.299,21.9,148.6,53.3C660.301,373.15,665.4,370.25,664.9,365.85z"/>
		<path d="M762.1,130.75c-41-41-88.699-73.2-141.9-95.7c-55.1-23.2-113.6-35-173.799-35c-60.2,0-118.7,11.8-173.8,35.1
			c-53.2,22.5-100.9,54.7-141.9,95.7s-73.1,88.6-95.6,141.8C11.8,327.75,0,386.25,0,446.45c0,60.2,11.8,118.7,35.1,173.799
			c22.5,53.201,54.7,100.9,95.7,141.9s88.7,73.201,141.9,95.701c55.101,23.299,113.5,35.1,173.8,35.1
			c60.301,0,118.7-11.801,173.801-35.1c53.199-22.5,100.898-54.701,141.898-95.701s73.201-88.699,95.701-141.9
			c23.299-55.1,35.1-113.5,35.1-173.799c0-60.3-11.801-118.7-35.1-173.8C835.199,219.45,803.1,171.75,762.1,130.75z M446.4,782.851
			c-89.9,0-174.4-35-237.9-98.5c-63.5-63.5-98.5-148-98.5-237.901c0-71.3,22-139.1,62.8-195.8l469.501,469.5
			C585.5,760.851,517.699,782.851,446.4,782.851z M720,642.249L609.801,532.05L250.6,172.85c56.7-40.8,124.6-62.8,195.8-62.8
			c89.901,0,174.401,35,237.901,98.5s98.5,148,98.5,237.9C782.801,517.749,760.801,585.55,720,642.249z"/>
	</g>
</g>
</svg>
